<svg id="Layer_1" data-name="Layer 1" xmlns="http://www.w3.org/2000/svg" viewBox="0 0 851.24 212.9"><defs><style>.cls-1{fill:#f5a11d;}.cls-2{fill:#d13239;}.cls-3{fill:#e21f26;}.cls-4{fill:#66161b;}.cls-5{fill:#727174;}</style></defs><title>iBASEt Logo</title><path class="cls-1" d="M38.59,207.89a16.19,16.19,0,0,1-2.52-.2c-8.4-1.34-15.9-9.09-19.61-16.18-9.77-18.66-5.9-43.1,11.52-72.67.5-.84,1-1.79,1.62-2.8,4.89-8.5,15-26,24.58-26,.21,0,.43,0,.64,0,5.45.44,9.36,6.35,11.21,11.74,2.16,6.32-.42,12.15-3.41,18.9l-.41.91a115.43,115.43,0,0,0-4.93,14.8c-.52,1.84-1,3.66-1.59,5.47a122.5,122.5,0,0,0-4.63,22c-.32,2.81-.45,5.63-.57,8.35-.06,1.34-.12,2.58-.19,3.83a3.93,3.93,0,0,0,1.33,3.18c2.3,2,5.48,3,9.75,3a60.21,60.21,0,0,0,6.64-.49l.45,0a37,37,0,0,0,6.6-1.47.74.74,0,0,1,.23,0,.77.77,0,0,1,.61.29.78.78,0,0,1,.07.87c-2.78,4.89-7.89,10-15.2,15.25-1,.72-2,1.46-3,2.22-6.37,4.7-12.3,9.09-19.14,9.09" transform="translate(-11.2 -3.96)"/><path class="cls-1" d="M60.59,54.06A13.23,13.23,0,1,1,73.82,40.83,13.24,13.24,0,0,1,60.59,54.06" transform="translate(-11.2 -3.96)"/><path class="cls-2" d="M751.79,184.89c-6-3.14-8.25-11.2-6.2-19.69,1-6.9,2.81-12.24,4.64-19.11,4.47-16.8,16.46-48.63,16.46-48.63,8.55-8.28,95.76-31,95.76-31s-1-4.29-16.08-6l-60.22-5.23s5.19-15.42,5.61-23.94a34,34,0,0,0-2.62-13.47c-1.72-4-6.37-10.7-9.73-12.34-11.16-5.46-18.55,5.23-23.19,12-8.73,12.67-17.14,30-23.19,43,0,0-29.23,6.39-45.38,11.87-10.36,3.25-16.34,8.5-16.34,15.75,0,9.55,12.4,17.3,27.7,17.3a43.08,43.08,0,0,0,6.56-.51c3.09-.25,6.17-.54,9.13-.63-3.08,10.34-6.33,21.12-9.35,32.54-3.75,14.2-7.6,32.1-4.49,47.88,2.75,14,9,21.56,19.45,27.31,4.39,2.42,10.42,5.42,16.46,4.86,4.4-.41,10.59-4.14,14.21-6.74,4.18-3,8.72-8.45,12-13.09s5-10.76,6.72-16.46h0c-5.59,5.2-12.46,7.22-17.87,4.38" transform="translate(-11.2 -3.96)"/><path class="cls-3" d="M751.79,184.89c-6-3.14-8.25-11.2-6.2-19.69,1-6.9,2.81-12.24,4.63-19.11,4.47-16.8,16.46-48.63,16.46-48.63,8.55-8.28,95.75-31,95.75-31s-1-4.29-16.08-6l-60.22-5.23s5.19-15.42,5.61-23.94a34.2,34.2,0,0,0-2.62-13.47c-1.72-4-6.37-10.7-9.73-12.34-11.16-5.46-18.55,5.23-23.19,12-8.73,12.67-17.14,30-23.19,43,0,0-29.22,6.39-45.37,11.87-10.36,3.25-16.35,8.5-16.35,15.75,0,9.55,12.4,17.3,27.7,17.3a43.06,43.06,0,0,0,6.56-.51c3.09-.25,6.18-.54,9.13-.63-3.07,10.34-6.33,21.12-9.35,32.54-3.75,14.2-7.6,32.1-4.49,47.88,2.75,14,9,21.56,19.45,27.31,4.39,2.42,10.42,5.42,16.45,4.86,4.4-.41,10.59-4.14,14.22-6.74,4.18-3,8.72-8.45,12-13.09s5-10.75,6.72-16.46h0c-5.58,5.2-12.46,7.22-17.87,4.38" transform="translate(-11.2 -3.96)"/><path class="cls-2" d="M742.16,162.62a32.64,32.64,0,0,0-.63,3.55c.06-.32.12-.64.2-1,.12-.89.28-1.73.44-2.58" transform="translate(-11.2 -3.96)"/><path class="cls-4" d="M769.66,180.51h0" transform="translate(-11.2 -3.96)"/><path class="cls-4" d="M769.56,180.6l.1-.09-.1.09" transform="translate(-11.2 -3.96)"/><path class="cls-5" d="M205.6,69.06c13.81,0,24.82-1.22,31.42,4.89,1.93,1.79,5.91,6.95,6.76,9.67,1.17,2.92.78,20.56.78,20.56s-.11,6.34-.81,8.67c-1.08,3.6-4.24,5.65-7.85,7.48,3.85,1.6,7.07,3.16,8.23,6.73.73,5.95.58,19.24.14,24.7a19.82,19.82,0,0,1-5.65,11.83,19.21,19.21,0,0,1-6.87,5.2c-3,1.28-24.28,1-24.28,1l-73,0V69.06ZM155,108.74l67.08.13v-14H155Zm0,36.65h67.08V130.06H155Z" transform="translate(-11.2 -3.96)"/><polygon class="cls-5" points="293.04 65.22 318.36 65.22 364 165.84 339.17 165.84 318.98 126.12 290.93 126.12 272.6 165.84 247.03 165.84 274.71 104.85 310.38 104.85 303.27 91.04 281.44 91.04 293.04 65.22"/><path class="cls-5" d="M504,69.13V95h-89.2v13.78h78.92c3.09,1.74,7.35,3.78,9.35,7.91,1.38,1.89.81,37.84-2.35,43.08-2.32,3.83-4.11,8.21-9.63,10H393.86l0-24.68h90.42v-15H424.1s-11.75,0-19.45-.05c-4.08-1-9.4-6.11-10.1-11.54-1.07-8.33-1.35-31.6,1.12-37,2.18-4.8,9-10.59,15-12,5.87-.81,25-.51,25-.51s44.88,0,68.3,0" transform="translate(-11.2 -3.96)"/><path class="cls-5" d="M634.27,69.09V94.25h-87.6v14.59l87.61,0v21.28h-87.6l0,14.21h87.63v25.44h-83c-3.74,0-8.12,0-11.6,0-3.86-1-10.47-6.25-12.34-10.47-4.18-9.42-3.21-39.94-3.21-39.94s-.2-23.7.59-34.49c.53-7.31,8.47-14.19,16.08-15.34,7.24-.73,23.56-.47,23.56-.47Z" transform="translate(-11.2 -3.96)"/></svg>